<mxfile host="app.diagrams.net" modified="2023-01-19T09:55:20.944Z" agent="5.0 (Windows NT 10.0; Win64; x64) AppleWebKit/537.36 (KHTML, like Gecko) Chrome/109.0.0.0 Safari/537.36" version="20.8.6" etag="yKxHmgf4dGm_zTUdldtw" type="github">
  <diagram id="58D5AOafcy1_hrWV-0iV" name="Seite-1">
    <mxGraphModel dx="989" dy="543" grid="1" gridSize="10" guides="1" tooltips="1" connect="1" arrows="1" fold="1" page="1" pageScale="1" pageWidth="827" pageHeight="1169" math="0" shadow="0">
      <root>
        <mxCell id="0" />
        <mxCell id="1" parent="0" />
        <mxCell id="SmPyQhIkt906FPV42rZm-10" style="edgeStyle=orthogonalEdgeStyle;rounded=0;orthogonalLoop=1;jettySize=auto;html=1;exitX=0.5;exitY=0;exitDx=0;exitDy=0;entryX=0.55;entryY=0.95;entryDx=0;entryDy=0;entryPerimeter=0;startArrow=block;startFill=1;" edge="1" parent="1" source="SmPyQhIkt906FPV42rZm-7" target="SmPyQhIkt906FPV42rZm-6">
          <mxGeometry relative="1" as="geometry" />
        </mxCell>
        <mxCell id="SmPyQhIkt906FPV42rZm-7" value="" style="rounded=0;whiteSpace=wrap;html=1;strokeColor=#FF1D0D;" vertex="1" parent="1">
          <mxGeometry x="110" y="130" width="510" height="380" as="geometry" />
        </mxCell>
        <mxCell id="SmPyQhIkt906FPV42rZm-12" style="edgeStyle=orthogonalEdgeStyle;rounded=0;orthogonalLoop=1;jettySize=auto;html=1;exitX=0.5;exitY=0;exitDx=0;exitDy=0;entryX=0;entryY=0.5;entryDx=0;entryDy=0;startArrow=none;startFill=0;endArrow=none;endFill=0;" edge="1" parent="1" source="SmPyQhIkt906FPV42rZm-2" target="SmPyQhIkt906FPV42rZm-4">
          <mxGeometry relative="1" as="geometry" />
        </mxCell>
        <mxCell id="SmPyQhIkt906FPV42rZm-2" value="VMLS1&lt;br&gt;(Samba AD)" style="rounded=0;whiteSpace=wrap;html=1;fillColor=#dae8fc;strokeColor=#6c8ebf;" vertex="1" parent="1">
          <mxGeometry x="210" y="280" width="120" height="60" as="geometry" />
        </mxCell>
        <mxCell id="SmPyQhIkt906FPV42rZm-13" style="edgeStyle=orthogonalEdgeStyle;rounded=0;orthogonalLoop=1;jettySize=auto;html=1;exitX=0.5;exitY=0;exitDx=0;exitDy=0;entryX=1;entryY=0.5;entryDx=0;entryDy=0;startArrow=none;startFill=0;endArrow=none;endFill=0;" edge="1" parent="1" source="SmPyQhIkt906FPV42rZm-3" target="SmPyQhIkt906FPV42rZm-4">
          <mxGeometry relative="1" as="geometry" />
        </mxCell>
        <mxCell id="SmPyQhIkt906FPV42rZm-14" style="edgeStyle=orthogonalEdgeStyle;rounded=0;orthogonalLoop=1;jettySize=auto;html=1;exitX=0;exitY=0.5;exitDx=0;exitDy=0;entryX=1;entryY=0.5;entryDx=0;entryDy=0;startArrow=none;startFill=0;endArrow=classic;endFill=1;" edge="1" parent="1" source="SmPyQhIkt906FPV42rZm-3" target="SmPyQhIkt906FPV42rZm-2">
          <mxGeometry relative="1" as="geometry" />
        </mxCell>
        <mxCell id="SmPyQhIkt906FPV42rZm-15" style="edgeStyle=orthogonalEdgeStyle;rounded=0;orthogonalLoop=1;jettySize=auto;html=1;exitX=0;exitY=0.5;exitDx=0;exitDy=0;entryX=1;entryY=0.5;entryDx=0;entryDy=0;startArrow=none;startFill=0;endArrow=classic;endFill=1;" edge="1" parent="1" source="SmPyQhIkt906FPV42rZm-3" target="SmPyQhIkt906FPV42rZm-5">
          <mxGeometry relative="1" as="geometry" />
        </mxCell>
        <mxCell id="SmPyQhIkt906FPV42rZm-3" value="VMWP1&lt;br&gt;(Client)" style="rounded=0;whiteSpace=wrap;html=1;fillColor=#d5e8d4;strokeColor=#82b366;" vertex="1" parent="1">
          <mxGeometry x="420" y="330" width="120" height="60" as="geometry" />
        </mxCell>
        <mxCell id="SmPyQhIkt906FPV42rZm-4" value="VMLF1&lt;br&gt;(Router)" style="rounded=0;whiteSpace=wrap;html=1;fillColor=#f8cecc;strokeColor=#b85450;" vertex="1" parent="1">
          <mxGeometry x="300" y="180" width="120" height="60" as="geometry" />
        </mxCell>
        <mxCell id="SmPyQhIkt906FPV42rZm-16" style="edgeStyle=orthogonalEdgeStyle;rounded=0;orthogonalLoop=1;jettySize=auto;html=1;exitX=0.5;exitY=0;exitDx=0;exitDy=0;entryX=0.5;entryY=1;entryDx=0;entryDy=0;startArrow=classic;startFill=1;endArrow=classic;endFill=1;" edge="1" parent="1" source="SmPyQhIkt906FPV42rZm-5" target="SmPyQhIkt906FPV42rZm-2">
          <mxGeometry relative="1" as="geometry" />
        </mxCell>
        <mxCell id="SmPyQhIkt906FPV42rZm-5" value="VMLS2&lt;br&gt;(Samba Shares)" style="rounded=0;whiteSpace=wrap;html=1;fillColor=#dae8fc;strokeColor=#6c8ebf;" vertex="1" parent="1">
          <mxGeometry x="210" y="370" width="120" height="60" as="geometry" />
        </mxCell>
        <mxCell id="SmPyQhIkt906FPV42rZm-6" value="Internet" style="ellipse;shape=cloud;whiteSpace=wrap;html=1;fillColor=#f8cecc;strokeColor=#b85450;" vertex="1" parent="1">
          <mxGeometry x="290" y="10" width="120" height="80" as="geometry" />
        </mxCell>
        <mxCell id="SmPyQhIkt906FPV42rZm-8" value="SAM159.iet-gibb.ch" style="text;html=1;strokeColor=none;fillColor=none;align=center;verticalAlign=middle;whiteSpace=wrap;rounded=0;" vertex="1" parent="1">
          <mxGeometry x="110" y="130" width="140" height="30" as="geometry" />
        </mxCell>
      </root>
    </mxGraphModel>
  </diagram>
</mxfile>
